<?xml version="1.0" encoding="UTF-8"?>
<!-- Generated: 2026-05-15T22:00:03.077392 -->
<svg xmlns="http://www.w3.org/2000/svg" width="785" height="196" viewBox="0 0 785 196">
  <defs>
    <linearGradient id="bgGrad" x1="0%" y1="0%" x2="100%" y2="100%">
      <stop offset="0%" stop-color="#16161e"/>
      <stop offset="100%" stop-color="#1a1b26"/>
    </linearGradient>
    <linearGradient id="neonBlue" x1="0%" y1="0%" x2="100%" y2="0%">
      <stop offset="0%" stop-color="#7aa2f7"/>
      <stop offset="100%" stop-color="#7dcfff"/>
    </linearGradient>
    <linearGradient id="neonPurple" x1="0%" y1="0%" x2="100%" y2="0%">
      <stop offset="0%" stop-color="#bb9af7"/>
      <stop offset="100%" stop-color="#ff007f"/>
    </linearGradient>
    <linearGradient id="neonGreen" x1="0%" y1="0%" x2="100%" y2="0%">
      <stop offset="0%" stop-color="#9ece6a"/>
      <stop offset="100%" stop-color="#7dcfff"/>
    </linearGradient>
    <linearGradient id="neonOrange" x1="0%" y1="0%" x2="100%" y2="0%">
      <stop offset="0%" stop-color="#ff9e64"/>
      <stop offset="100%" stop-color="#e0af68"/>
    </linearGradient>
    <filter id="glow" x="-20%" y="-20%" width="140%" height="140%">
      <feGaussianBlur stdDeviation="3" result="blur"/>
      <feComposite in="SourceGraphic" in2="blur" operator="over"/>
    </filter>
    <filter id="cardShadow" x="-5%" y="-5%" width="110%" height="110%">
      <feDropShadow dx="0" dy="4" stdDeviation="6" flood-color="#000" flood-opacity="0.4"/>
    </filter>
    
  </defs>
  <rect width="785" height="196" rx="12" fill="url(#bgGrad)"/>
    <rect x="10" y="10" width="765" height="176" rx="10" fill="#1f2335" fill-opacity="0.6" stroke="#414868" stroke-width="1" filter="url(#cardShadow)"/>
  <text x="20" y="38" fill="url(#neonGreen)" font-size="16" font-weight="700" font-family="Segoe UI,Ubuntu,sans-serif" filter="url(#glow)">Contribution Activity</text>
    <rect x="20" y="55" width="11" height="11" rx="3" fill="#414868" fill-opacity="0.25"/>
    <rect x="20" y="69" width="11" height="11" rx="3" fill="#414868" fill-opacity="0.25"/>
    <rect x="20" y="83" width="11" height="11" rx="3" fill="#414868" fill-opacity="0.25"/>
    <rect x="20" y="97" width="11" height="11" rx="3" fill="#414868" fill-opacity="0.25"/>
    <rect x="20" y="111" width="11" height="11" rx="3" fill="#414868" fill-opacity="0.25"/>
    <rect x="20" y="125" width="11" height="11" rx="3" fill="#414868" fill-opacity="0.25"/>
    <rect x="20" y="139" width="11" height="11" rx="3" fill="#414868" fill-opacity="0.25"/>
    <rect x="34" y="55" width="11" height="11" rx="3" fill="#414868" fill-opacity="0.25"/>
    <rect x="34" y="69" width="11" height="11" rx="3" fill="#9be9a8" fill-opacity="1"/>
    <rect x="34" y="83" width="11" height="11" rx="3" fill="#414868" fill-opacity="0.25"/>
    <rect x="34" y="97" width="11" height="11" rx="3" fill="#414868" fill-opacity="0.25"/>
    <rect x="34" y="111" width="11" height="11" rx="3" fill="#414868" fill-opacity="0.25"/>
    <rect x="34" y="125" width="11" height="11" rx="3" fill="#216e39" fill-opacity="1"/>
    <rect x="34" y="139" width="11" height="11" rx="3" fill="#9be9a8" fill-opacity="1"/>
    <rect x="48" y="55" width="11" height="11" rx="3" fill="#9be9a8" fill-opacity="1"/>
    <rect x="48" y="69" width="11" height="11" rx="3" fill="#414868" fill-opacity="0.25"/>
    <rect x="48" y="83" width="11" height="11" rx="3" fill="#414868" fill-opacity="0.25"/>
    <rect x="48" y="97" width="11" height="11" rx="3" fill="#414868" fill-opacity="0.25"/>
    <rect x="48" y="111" width="11" height="11" rx="3" fill="#414868" fill-opacity="0.25"/>
    <rect x="48" y="125" width="11" height="11" rx="3" fill="#414868" fill-opacity="0.25"/>
    <rect x="48" y="139" width="11" height="11" rx="3" fill="#414868" fill-opacity="0.25"/>
    <rect x="62" y="55" width="11" height="11" rx="3" fill="#414868" fill-opacity="0.25"/>
    <rect x="62" y="69" width="11" height="11" rx="3" fill="#414868" fill-opacity="0.25"/>
    <rect x="62" y="83" width="11" height="11" rx="3" fill="#414868" fill-opacity="0.25"/>
    <rect x="62" y="97" width="11" height="11" rx="3" fill="#30a14e" fill-opacity="1"/>
    <rect x="62" y="111" width="11" height="11" rx="3" fill="#9be9a8" fill-opacity="1"/>
    <rect x="62" y="125" width="11" height="11" rx="3" fill="#414868" fill-opacity="0.25"/>
    <rect x="62" y="139" width="11" height="11" rx="3" fill="#414868" fill-opacity="0.25"/>
    <rect x="76" y="55" width="11" height="11" rx="3" fill="#414868" fill-opacity="0.25"/>
    <rect x="76" y="69" width="11" height="11" rx="3" fill="#414868" fill-opacity="0.25"/>
    <rect x="76" y="83" width="11" height="11" rx="3" fill="#414868" fill-opacity="0.25"/>
    <rect x="76" y="97" width="11" height="11" rx="3" fill="#414868" fill-opacity="0.25"/>
    <rect x="76" y="111" width="11" height="11" rx="3" fill="#9be9a8" fill-opacity="1"/>
    <rect x="76" y="125" width="11" height="11" rx="3" fill="#414868" fill-opacity="0.25"/>
    <rect x="76" y="139" width="11" height="11" rx="3" fill="#414868" fill-opacity="0.25"/>
    <rect x="90" y="55" width="11" height="11" rx="3" fill="#414868" fill-opacity="0.25"/>
    <rect x="90" y="69" width="11" height="11" rx="3" fill="#414868" fill-opacity="0.25"/>
    <rect x="90" y="83" width="11" height="11" rx="3" fill="#40c463" fill-opacity="1"/>
    <rect x="90" y="97" width="11" height="11" rx="3" fill="#414868" fill-opacity="0.25"/>
    <rect x="90" y="111" width="11" height="11" rx="3" fill="#414868" fill-opacity="0.25"/>
    <rect x="90" y="125" width="11" height="11" rx="3" fill="#414868" fill-opacity="0.25"/>
    <rect x="90" y="139" width="11" height="11" rx="3" fill="#414868" fill-opacity="0.25"/>
    <rect x="104" y="55" width="11" height="11" rx="3" fill="#414868" fill-opacity="0.25"/>
    <rect x="104" y="69" width="11" height="11" rx="3" fill="#414868" fill-opacity="0.25"/>
    <rect x="104" y="83" width="11" height="11" rx="3" fill="#414868" fill-opacity="0.25"/>
    <rect x="104" y="97" width="11" height="11" rx="3" fill="#414868" fill-opacity="0.25"/>
    <rect x="104" y="111" width="11" height="11" rx="3" fill="#414868" fill-opacity="0.25"/>
    <rect x="104" y="125" width="11" height="11" rx="3" fill="#9be9a8" fill-opacity="1"/>
    <rect x="104" y="139" width="11" height="11" rx="3" fill="#414868" fill-opacity="0.25"/>
    <rect x="118" y="55" width="11" height="11" rx="3" fill="#414868" fill-opacity="0.25"/>
    <rect x="118" y="69" width="11" height="11" rx="3" fill="#414868" fill-opacity="0.25"/>
    <rect x="118" y="83" width="11" height="11" rx="3" fill="#414868" fill-opacity="0.25"/>
    <rect x="118" y="97" width="11" height="11" rx="3" fill="#414868" fill-opacity="0.25"/>
    <rect x="118" y="111" width="11" height="11" rx="3" fill="#414868" fill-opacity="0.25"/>
    <rect x="118" y="125" width="11" height="11" rx="3" fill="#414868" fill-opacity="0.25"/>
    <rect x="118" y="139" width="11" height="11" rx="3" fill="#414868" fill-opacity="0.25"/>
    <rect x="132" y="55" width="11" height="11" rx="3" fill="#414868" fill-opacity="0.25"/>
    <rect x="132" y="69" width="11" height="11" rx="3" fill="#414868" fill-opacity="0.25"/>
    <rect x="132" y="83" width="11" height="11" rx="3" fill="#414868" fill-opacity="0.25"/>
    <rect x="132" y="97" width="11" height="11" rx="3" fill="#414868" fill-opacity="0.25"/>
    <rect x="132" y="111" width="11" height="11" rx="3" fill="#414868" fill-opacity="0.25"/>
    <rect x="132" y="125" width="11" height="11" rx="3" fill="#414868" fill-opacity="0.25"/>
    <rect x="132" y="139" width="11" height="11" rx="3" fill="#414868" fill-opacity="0.25"/>
    <rect x="146" y="55" width="11" height="11" rx="3" fill="#414868" fill-opacity="0.25"/>
    <rect x="146" y="69" width="11" height="11" rx="3" fill="#414868" fill-opacity="0.25"/>
    <rect x="146" y="83" width="11" height="11" rx="3" fill="#414868" fill-opacity="0.25"/>
    <rect x="146" y="97" width="11" height="11" rx="3" fill="#414868" fill-opacity="0.25"/>
    <rect x="146" y="111" width="11" height="11" rx="3" fill="#414868" fill-opacity="0.25"/>
    <rect x="146" y="125" width="11" height="11" rx="3" fill="#414868" fill-opacity="0.25"/>
    <rect x="146" y="139" width="11" height="11" rx="3" fill="#414868" fill-opacity="0.25"/>
    <rect x="160" y="55" width="11" height="11" rx="3" fill="#414868" fill-opacity="0.25"/>
    <rect x="160" y="69" width="11" height="11" rx="3" fill="#414868" fill-opacity="0.25"/>
    <rect x="160" y="83" width="11" height="11" rx="3" fill="#414868" fill-opacity="0.25"/>
    <rect x="160" y="97" width="11" height="11" rx="3" fill="#414868" fill-opacity="0.25"/>
    <rect x="160" y="111" width="11" height="11" rx="3" fill="#414868" fill-opacity="0.25"/>
    <rect x="160" y="125" width="11" height="11" rx="3" fill="#414868" fill-opacity="0.25"/>
    <rect x="160" y="139" width="11" height="11" rx="3" fill="#414868" fill-opacity="0.25"/>
    <rect x="174" y="55" width="11" height="11" rx="3" fill="#414868" fill-opacity="0.25"/>
    <rect x="174" y="69" width="11" height="11" rx="3" fill="#414868" fill-opacity="0.25"/>
    <rect x="174" y="83" width="11" height="11" rx="3" fill="#414868" fill-opacity="0.25"/>
    <rect x="174" y="97" width="11" height="11" rx="3" fill="#414868" fill-opacity="0.25"/>
    <rect x="174" y="111" width="11" height="11" rx="3" fill="#414868" fill-opacity="0.25"/>
    <rect x="174" y="125" width="11" height="11" rx="3" fill="#414868" fill-opacity="0.25"/>
    <rect x="174" y="139" width="11" height="11" rx="3" fill="#414868" fill-opacity="0.25"/>
    <rect x="188" y="55" width="11" height="11" rx="3" fill="#414868" fill-opacity="0.25"/>
    <rect x="188" y="69" width="11" height="11" rx="3" fill="#414868" fill-opacity="0.25"/>
    <rect x="188" y="83" width="11" height="11" rx="3" fill="#414868" fill-opacity="0.25"/>
    <rect x="188" y="97" width="11" height="11" rx="3" fill="#414868" fill-opacity="0.25"/>
    <rect x="188" y="111" width="11" height="11" rx="3" fill="#414868" fill-opacity="0.25"/>
    <rect x="188" y="125" width="11" height="11" rx="3" fill="#414868" fill-opacity="0.25"/>
    <rect x="188" y="139" width="11" height="11" rx="3" fill="#414868" fill-opacity="0.25"/>
    <rect x="202" y="55" width="11" height="11" rx="3" fill="#414868" fill-opacity="0.25"/>
    <rect x="202" y="69" width="11" height="11" rx="3" fill="#414868" fill-opacity="0.25"/>
    <rect x="202" y="83" width="11" height="11" rx="3" fill="#414868" fill-opacity="0.25"/>
    <rect x="202" y="97" width="11" height="11" rx="3" fill="#414868" fill-opacity="0.25"/>
    <rect x="202" y="111" width="11" height="11" rx="3" fill="#414868" fill-opacity="0.25"/>
    <rect x="202" y="125" width="11" height="11" rx="3" fill="#414868" fill-opacity="0.25"/>
    <rect x="202" y="139" width="11" height="11" rx="3" fill="#414868" fill-opacity="0.25"/>
    <rect x="216" y="55" width="11" height="11" rx="3" fill="#414868" fill-opacity="0.25"/>
    <rect x="216" y="69" width="11" height="11" rx="3" fill="#414868" fill-opacity="0.25"/>
    <rect x="216" y="83" width="11" height="11" rx="3" fill="#414868" fill-opacity="0.25"/>
    <rect x="216" y="97" width="11" height="11" rx="3" fill="#414868" fill-opacity="0.25"/>
    <rect x="216" y="111" width="11" height="11" rx="3" fill="#40c463" fill-opacity="1"/>
    <rect x="216" y="125" width="11" height="11" rx="3" fill="#30a14e" fill-opacity="1"/>
    <rect x="216" y="139" width="11" height="11" rx="3" fill="#30a14e" fill-opacity="1"/>
    <rect x="230" y="55" width="11" height="11" rx="3" fill="#216e39" fill-opacity="1"/>
    <rect x="230" y="69" width="11" height="11" rx="3" fill="#9be9a8" fill-opacity="1"/>
    <rect x="230" y="83" width="11" height="11" rx="3" fill="#414868" fill-opacity="0.25"/>
    <rect x="230" y="97" width="11" height="11" rx="3" fill="#414868" fill-opacity="0.25"/>
    <rect x="230" y="111" width="11" height="11" rx="3" fill="#414868" fill-opacity="0.25"/>
    <rect x="230" y="125" width="11" height="11" rx="3" fill="#414868" fill-opacity="0.25"/>
    <rect x="230" y="139" width="11" height="11" rx="3" fill="#414868" fill-opacity="0.25"/>
    <rect x="244" y="55" width="11" height="11" rx="3" fill="#414868" fill-opacity="0.25"/>
    <rect x="244" y="69" width="11" height="11" rx="3" fill="#414868" fill-opacity="0.25"/>
    <rect x="244" y="83" width="11" height="11" rx="3" fill="#414868" fill-opacity="0.25"/>
    <rect x="244" y="97" width="11" height="11" rx="3" fill="#9be9a8" fill-opacity="1"/>
    <rect x="244" y="111" width="11" height="11" rx="3" fill="#9be9a8" fill-opacity="1"/>
    <rect x="244" y="125" width="11" height="11" rx="3" fill="#9be9a8" fill-opacity="1"/>
    <rect x="244" y="139" width="11" height="11" rx="3" fill="#40c463" fill-opacity="1"/>
    <rect x="258" y="55" width="11" height="11" rx="3" fill="#414868" fill-opacity="0.25"/>
    <rect x="258" y="69" width="11" height="11" rx="3" fill="#414868" fill-opacity="0.25"/>
    <rect x="258" y="83" width="11" height="11" rx="3" fill="#414868" fill-opacity="0.25"/>
    <rect x="258" y="97" width="11" height="11" rx="3" fill="#414868" fill-opacity="0.25"/>
    <rect x="258" y="111" width="11" height="11" rx="3" fill="#414868" fill-opacity="0.25"/>
    <rect x="258" y="125" width="11" height="11" rx="3" fill="#9be9a8" fill-opacity="1"/>
    <rect x="258" y="139" width="11" height="11" rx="3" fill="#414868" fill-opacity="0.25"/>
    <rect x="272" y="55" width="11" height="11" rx="3" fill="#414868" fill-opacity="0.25"/>
    <rect x="272" y="69" width="11" height="11" rx="3" fill="#414868" fill-opacity="0.25"/>
    <rect x="272" y="83" width="11" height="11" rx="3" fill="#216e39" fill-opacity="1"/>
    <rect x="272" y="97" width="11" height="11" rx="3" fill="#30a14e" fill-opacity="1"/>
    <rect x="272" y="111" width="11" height="11" rx="3" fill="#9be9a8" fill-opacity="1"/>
    <rect x="272" y="125" width="11" height="11" rx="3" fill="#414868" fill-opacity="0.25"/>
    <rect x="272" y="139" width="11" height="11" rx="3" fill="#414868" fill-opacity="0.25"/>
    <rect x="286" y="55" width="11" height="11" rx="3" fill="#414868" fill-opacity="0.25"/>
    <rect x="286" y="69" width="11" height="11" rx="3" fill="#414868" fill-opacity="0.25"/>
    <rect x="286" y="83" width="11" height="11" rx="3" fill="#216e39" fill-opacity="1"/>
    <rect x="286" y="97" width="11" height="11" rx="3" fill="#40c463" fill-opacity="1"/>
    <rect x="286" y="111" width="11" height="11" rx="3" fill="#9be9a8" fill-opacity="1"/>
    <rect x="286" y="125" width="11" height="11" rx="3" fill="#9be9a8" fill-opacity="1"/>
    <rect x="286" y="139" width="11" height="11" rx="3" fill="#9be9a8" fill-opacity="1"/>
    <rect x="300" y="55" width="11" height="11" rx="3" fill="#414868" fill-opacity="0.25"/>
    <rect x="300" y="69" width="11" height="11" rx="3" fill="#9be9a8" fill-opacity="1"/>
    <rect x="300" y="83" width="11" height="11" rx="3" fill="#414868" fill-opacity="0.25"/>
    <rect x="300" y="97" width="11" height="11" rx="3" fill="#414868" fill-opacity="0.25"/>
    <rect x="300" y="111" width="11" height="11" rx="3" fill="#414868" fill-opacity="0.25"/>
    <rect x="300" y="125" width="11" height="11" rx="3" fill="#414868" fill-opacity="0.25"/>
    <rect x="300" y="139" width="11" height="11" rx="3" fill="#414868" fill-opacity="0.25"/>
    <rect x="314" y="55" width="11" height="11" rx="3" fill="#40c463" fill-opacity="1"/>
    <rect x="314" y="69" width="11" height="11" rx="3" fill="#414868" fill-opacity="0.25"/>
    <rect x="314" y="83" width="11" height="11" rx="3" fill="#9be9a8" fill-opacity="1"/>
    <rect x="314" y="97" width="11" height="11" rx="3" fill="#9be9a8" fill-opacity="1"/>
    <rect x="314" y="111" width="11" height="11" rx="3" fill="#9be9a8" fill-opacity="1"/>
    <rect x="314" y="125" width="11" height="11" rx="3" fill="#414868" fill-opacity="0.25"/>
    <rect x="314" y="139" width="11" height="11" rx="3" fill="#414868" fill-opacity="0.25"/>
    <rect x="328" y="55" width="11" height="11" rx="3" fill="#414868" fill-opacity="0.25"/>
    <rect x="328" y="69" width="11" height="11" rx="3" fill="#414868" fill-opacity="0.25"/>
    <rect x="328" y="83" width="11" height="11" rx="3" fill="#414868" fill-opacity="0.25"/>
    <rect x="328" y="97" width="11" height="11" rx="3" fill="#414868" fill-opacity="0.25"/>
    <rect x="328" y="111" width="11" height="11" rx="3" fill="#414868" fill-opacity="0.25"/>
    <rect x="328" y="125" width="11" height="11" rx="3" fill="#414868" fill-opacity="0.25"/>
    <rect x="328" y="139" width="11" height="11" rx="3" fill="#414868" fill-opacity="0.25"/>
    <rect x="342" y="55" width="11" height="11" rx="3" fill="#414868" fill-opacity="0.25"/>
    <rect x="342" y="69" width="11" height="11" rx="3" fill="#414868" fill-opacity="0.25"/>
    <rect x="342" y="83" width="11" height="11" rx="3" fill="#414868" fill-opacity="0.25"/>
    <rect x="342" y="97" width="11" height="11" rx="3" fill="#414868" fill-opacity="0.25"/>
    <rect x="342" y="111" width="11" height="11" rx="3" fill="#414868" fill-opacity="0.25"/>
    <rect x="342" y="125" width="11" height="11" rx="3" fill="#414868" fill-opacity="0.25"/>
    <rect x="342" y="139" width="11" height="11" rx="3" fill="#414868" fill-opacity="0.25"/>
    <rect x="356" y="55" width="11" height="11" rx="3" fill="#414868" fill-opacity="0.25"/>
    <rect x="356" y="69" width="11" height="11" rx="3" fill="#414868" fill-opacity="0.25"/>
    <rect x="356" y="83" width="11" height="11" rx="3" fill="#414868" fill-opacity="0.25"/>
    <rect x="356" y="97" width="11" height="11" rx="3" fill="#9be9a8" fill-opacity="1"/>
    <rect x="356" y="111" width="11" height="11" rx="3" fill="#414868" fill-opacity="0.25"/>
    <rect x="356" y="125" width="11" height="11" rx="3" fill="#414868" fill-opacity="0.25"/>
    <rect x="356" y="139" width="11" height="11" rx="3" fill="#414868" fill-opacity="0.25"/>
    <rect x="370" y="55" width="11" height="11" rx="3" fill="#414868" fill-opacity="0.25"/>
    <rect x="370" y="69" width="11" height="11" rx="3" fill="#414868" fill-opacity="0.25"/>
    <rect x="370" y="83" width="11" height="11" rx="3" fill="#414868" fill-opacity="0.25"/>
    <rect x="370" y="97" width="11" height="11" rx="3" fill="#414868" fill-opacity="0.25"/>
    <rect x="370" y="111" width="11" height="11" rx="3" fill="#414868" fill-opacity="0.25"/>
    <rect x="370" y="125" width="11" height="11" rx="3" fill="#414868" fill-opacity="0.25"/>
    <rect x="370" y="139" width="11" height="11" rx="3" fill="#414868" fill-opacity="0.25"/>
    <rect x="384" y="55" width="11" height="11" rx="3" fill="#414868" fill-opacity="0.25"/>
    <rect x="384" y="69" width="11" height="11" rx="3" fill="#414868" fill-opacity="0.25"/>
    <rect x="384" y="83" width="11" height="11" rx="3" fill="#414868" fill-opacity="0.25"/>
    <rect x="384" y="97" width="11" height="11" rx="3" fill="#414868" fill-opacity="0.25"/>
    <rect x="384" y="111" width="11" height="11" rx="3" fill="#414868" fill-opacity="0.25"/>
    <rect x="384" y="125" width="11" height="11" rx="3" fill="#414868" fill-opacity="0.25"/>
    <rect x="384" y="139" width="11" height="11" rx="3" fill="#9be9a8" fill-opacity="1"/>
    <rect x="398" y="55" width="11" height="11" rx="3" fill="#216e39" fill-opacity="1"/>
    <rect x="398" y="69" width="11" height="11" rx="3" fill="#414868" fill-opacity="0.25"/>
    <rect x="398" y="83" width="11" height="11" rx="3" fill="#414868" fill-opacity="0.25"/>
    <rect x="398" y="97" width="11" height="11" rx="3" fill="#414868" fill-opacity="0.25"/>
    <rect x="398" y="111" width="11" height="11" rx="3" fill="#414868" fill-opacity="0.25"/>
    <rect x="398" y="125" width="11" height="11" rx="3" fill="#414868" fill-opacity="0.25"/>
    <rect x="398" y="139" width="11" height="11" rx="3" fill="#414868" fill-opacity="0.25"/>
    <rect x="412" y="55" width="11" height="11" rx="3" fill="#9be9a8" fill-opacity="1"/>
    <rect x="412" y="69" width="11" height="11" rx="3" fill="#30a14e" fill-opacity="1"/>
    <rect x="412" y="83" width="11" height="11" rx="3" fill="#40c463" fill-opacity="1"/>
    <rect x="412" y="97" width="11" height="11" rx="3" fill="#40c463" fill-opacity="1"/>
    <rect x="412" y="111" width="11" height="11" rx="3" fill="#40c463" fill-opacity="1"/>
    <rect x="412" y="125" width="11" height="11" rx="3" fill="#40c463" fill-opacity="1"/>
    <rect x="412" y="139" width="11" height="11" rx="3" fill="#40c463" fill-opacity="1"/>
    <rect x="426" y="55" width="11" height="11" rx="3" fill="#414868" fill-opacity="0.25"/>
    <rect x="426" y="69" width="11" height="11" rx="3" fill="#414868" fill-opacity="0.25"/>
    <rect x="426" y="83" width="11" height="11" rx="3" fill="#414868" fill-opacity="0.25"/>
    <rect x="426" y="97" width="11" height="11" rx="3" fill="#9be9a8" fill-opacity="1"/>
    <rect x="426" y="111" width="11" height="11" rx="3" fill="#414868" fill-opacity="0.25"/>
    <rect x="426" y="125" width="11" height="11" rx="3" fill="#414868" fill-opacity="0.25"/>
    <rect x="426" y="139" width="11" height="11" rx="3" fill="#414868" fill-opacity="0.25"/>
    <rect x="440" y="55" width="11" height="11" rx="3" fill="#414868" fill-opacity="0.25"/>
    <rect x="440" y="69" width="11" height="11" rx="3" fill="#414868" fill-opacity="0.25"/>
    <rect x="440" y="83" width="11" height="11" rx="3" fill="#9be9a8" fill-opacity="1"/>
    <rect x="440" y="97" width="11" height="11" rx="3" fill="#9be9a8" fill-opacity="1"/>
    <rect x="440" y="111" width="11" height="11" rx="3" fill="#414868" fill-opacity="0.25"/>
    <rect x="440" y="125" width="11" height="11" rx="3" fill="#40c463" fill-opacity="1"/>
    <rect x="440" y="139" width="11" height="11" rx="3" fill="#414868" fill-opacity="0.25"/>
    <rect x="454" y="55" width="11" height="11" rx="3" fill="#9be9a8" fill-opacity="1"/>
    <rect x="454" y="69" width="11" height="11" rx="3" fill="#414868" fill-opacity="0.25"/>
    <rect x="454" y="83" width="11" height="11" rx="3" fill="#9be9a8" fill-opacity="1"/>
    <rect x="454" y="97" width="11" height="11" rx="3" fill="#414868" fill-opacity="0.25"/>
    <rect x="454" y="111" width="11" height="11" rx="3" fill="#414868" fill-opacity="0.25"/>
    <rect x="454" y="125" width="11" height="11" rx="3" fill="#414868" fill-opacity="0.25"/>
    <rect x="454" y="139" width="11" height="11" rx="3" fill="#414868" fill-opacity="0.25"/>
    <rect x="468" y="55" width="11" height="11" rx="3" fill="#414868" fill-opacity="0.25"/>
    <rect x="468" y="69" width="11" height="11" rx="3" fill="#414868" fill-opacity="0.25"/>
    <rect x="468" y="83" width="11" height="11" rx="3" fill="#414868" fill-opacity="0.25"/>
    <rect x="468" y="97" width="11" height="11" rx="3" fill="#414868" fill-opacity="0.25"/>
    <rect x="468" y="111" width="11" height="11" rx="3" fill="#414868" fill-opacity="0.25"/>
    <rect x="468" y="125" width="11" height="11" rx="3" fill="#414868" fill-opacity="0.25"/>
    <rect x="468" y="139" width="11" height="11" rx="3" fill="#414868" fill-opacity="0.25"/>
    <rect x="482" y="55" width="11" height="11" rx="3" fill="#414868" fill-opacity="0.25"/>
    <rect x="482" y="69" width="11" height="11" rx="3" fill="#414868" fill-opacity="0.25"/>
    <rect x="482" y="83" width="11" height="11" rx="3" fill="#414868" fill-opacity="0.25"/>
    <rect x="482" y="97" width="11" height="11" rx="3" fill="#414868" fill-opacity="0.25"/>
    <rect x="482" y="111" width="11" height="11" rx="3" fill="#414868" fill-opacity="0.25"/>
    <rect x="482" y="125" width="11" height="11" rx="3" fill="#414868" fill-opacity="0.25"/>
    <rect x="482" y="139" width="11" height="11" rx="3" fill="#414868" fill-opacity="0.25"/>
    <rect x="496" y="55" width="11" height="11" rx="3" fill="#414868" fill-opacity="0.25"/>
    <rect x="496" y="69" width="11" height="11" rx="3" fill="#414868" fill-opacity="0.25"/>
    <rect x="496" y="83" width="11" height="11" rx="3" fill="#414868" fill-opacity="0.25"/>
    <rect x="496" y="97" width="11" height="11" rx="3" fill="#414868" fill-opacity="0.25"/>
    <rect x="496" y="111" width="11" height="11" rx="3" fill="#414868" fill-opacity="0.25"/>
    <rect x="496" y="125" width="11" height="11" rx="3" fill="#414868" fill-opacity="0.25"/>
    <rect x="496" y="139" width="11" height="11" rx="3" fill="#414868" fill-opacity="0.25"/>
    <rect x="510" y="55" width="11" height="11" rx="3" fill="#414868" fill-opacity="0.25"/>
    <rect x="510" y="69" width="11" height="11" rx="3" fill="#414868" fill-opacity="0.25"/>
    <rect x="510" y="83" width="11" height="11" rx="3" fill="#414868" fill-opacity="0.25"/>
    <rect x="510" y="97" width="11" height="11" rx="3" fill="#414868" fill-opacity="0.25"/>
    <rect x="510" y="111" width="11" height="11" rx="3" fill="#414868" fill-opacity="0.25"/>
    <rect x="510" y="125" width="11" height="11" rx="3" fill="#414868" fill-opacity="0.25"/>
    <rect x="510" y="139" width="11" height="11" rx="3" fill="#414868" fill-opacity="0.25"/>
    <rect x="524" y="55" width="11" height="11" rx="3" fill="#414868" fill-opacity="0.25"/>
    <rect x="524" y="69" width="11" height="11" rx="3" fill="#414868" fill-opacity="0.25"/>
    <rect x="524" y="83" width="11" height="11" rx="3" fill="#414868" fill-opacity="0.25"/>
    <rect x="524" y="97" width="11" height="11" rx="3" fill="#414868" fill-opacity="0.25"/>
    <rect x="524" y="111" width="11" height="11" rx="3" fill="#414868" fill-opacity="0.25"/>
    <rect x="524" y="125" width="11" height="11" rx="3" fill="#414868" fill-opacity="0.25"/>
    <rect x="524" y="139" width="11" height="11" rx="3" fill="#414868" fill-opacity="0.25"/>
    <rect x="538" y="55" width="11" height="11" rx="3" fill="#414868" fill-opacity="0.25"/>
    <rect x="538" y="69" width="11" height="11" rx="3" fill="#414868" fill-opacity="0.25"/>
    <rect x="538" y="83" width="11" height="11" rx="3" fill="#414868" fill-opacity="0.25"/>
    <rect x="538" y="97" width="11" height="11" rx="3" fill="#414868" fill-opacity="0.25"/>
    <rect x="538" y="111" width="11" height="11" rx="3" fill="#414868" fill-opacity="0.25"/>
    <rect x="538" y="125" width="11" height="11" rx="3" fill="#9be9a8" fill-opacity="1"/>
    <rect x="538" y="139" width="11" height="11" rx="3" fill="#9be9a8" fill-opacity="1"/>
    <rect x="552" y="55" width="11" height="11" rx="3" fill="#414868" fill-opacity="0.25"/>
    <rect x="552" y="69" width="11" height="11" rx="3" fill="#9be9a8" fill-opacity="1"/>
    <rect x="552" y="83" width="11" height="11" rx="3" fill="#414868" fill-opacity="0.25"/>
    <rect x="552" y="97" width="11" height="11" rx="3" fill="#216e39" fill-opacity="1"/>
    <rect x="552" y="111" width="11" height="11" rx="3" fill="#9be9a8" fill-opacity="1"/>
    <rect x="552" y="125" width="11" height="11" rx="3" fill="#216e39" fill-opacity="1"/>
    <rect x="552" y="139" width="11" height="11" rx="3" fill="#9be9a8" fill-opacity="1"/>
    <rect x="566" y="55" width="11" height="11" rx="3" fill="#9be9a8" fill-opacity="1"/>
    <rect x="566" y="69" width="11" height="11" rx="3" fill="#40c463" fill-opacity="1"/>
    <rect x="566" y="83" width="11" height="11" rx="3" fill="#9be9a8" fill-opacity="1"/>
    <rect x="566" y="97" width="11" height="11" rx="3" fill="#414868" fill-opacity="0.25"/>
    <rect x="566" y="111" width="11" height="11" rx="3" fill="#414868" fill-opacity="0.25"/>
    <rect x="566" y="125" width="11" height="11" rx="3" fill="#414868" fill-opacity="0.25"/>
    <rect x="566" y="139" width="11" height="11" rx="3" fill="#414868" fill-opacity="0.25"/>
    <rect x="580" y="55" width="11" height="11" rx="3" fill="#9be9a8" fill-opacity="1"/>
    <rect x="580" y="69" width="11" height="11" rx="3" fill="#9be9a8" fill-opacity="1"/>
    <rect x="580" y="83" width="11" height="11" rx="3" fill="#9be9a8" fill-opacity="1"/>
    <rect x="580" y="97" width="11" height="11" rx="3" fill="#414868" fill-opacity="0.25"/>
    <rect x="580" y="111" width="11" height="11" rx="3" fill="#414868" fill-opacity="0.25"/>
    <rect x="580" y="125" width="11" height="11" rx="3" fill="#9be9a8" fill-opacity="1"/>
    <rect x="580" y="139" width="11" height="11" rx="3" fill="#9be9a8" fill-opacity="1"/>
    <rect x="594" y="55" width="11" height="11" rx="3" fill="#414868" fill-opacity="0.25"/>
    <rect x="594" y="69" width="11" height="11" rx="3" fill="#40c463" fill-opacity="1"/>
    <rect x="594" y="83" width="11" height="11" rx="3" fill="#9be9a8" fill-opacity="1"/>
    <rect x="594" y="97" width="11" height="11" rx="3" fill="#216e39" fill-opacity="1"/>
    <rect x="594" y="111" width="11" height="11" rx="3" fill="#414868" fill-opacity="0.25"/>
    <rect x="594" y="125" width="11" height="11" rx="3" fill="#30a14e" fill-opacity="1"/>
    <rect x="594" y="139" width="11" height="11" rx="3" fill="#9be9a8" fill-opacity="1"/>
    <rect x="608" y="55" width="11" height="11" rx="3" fill="#40c463" fill-opacity="1"/>
    <rect x="608" y="69" width="11" height="11" rx="3" fill="#9be9a8" fill-opacity="1"/>
    <rect x="608" y="83" width="11" height="11" rx="3" fill="#40c463" fill-opacity="1"/>
    <rect x="608" y="97" width="11" height="11" rx="3" fill="#9be9a8" fill-opacity="1"/>
    <rect x="608" y="111" width="11" height="11" rx="3" fill="#414868" fill-opacity="0.25"/>
    <rect x="608" y="125" width="11" height="11" rx="3" fill="#414868" fill-opacity="0.25"/>
    <rect x="608" y="139" width="11" height="11" rx="3" fill="#414868" fill-opacity="0.25"/>
    <rect x="622" y="55" width="11" height="11" rx="3" fill="#414868" fill-opacity="0.25"/>
    <rect x="622" y="69" width="11" height="11" rx="3" fill="#414868" fill-opacity="0.25"/>
    <rect x="622" y="83" width="11" height="11" rx="3" fill="#414868" fill-opacity="0.25"/>
    <rect x="622" y="97" width="11" height="11" rx="3" fill="#9be9a8" fill-opacity="1"/>
    <rect x="622" y="111" width="11" height="11" rx="3" fill="#414868" fill-opacity="0.25"/>
    <rect x="622" y="125" width="11" height="11" rx="3" fill="#9be9a8" fill-opacity="1"/>
    <rect x="622" y="139" width="11" height="11" rx="3" fill="#414868" fill-opacity="0.25"/>
    <rect x="636" y="55" width="11" height="11" rx="3" fill="#414868" fill-opacity="0.25"/>
    <rect x="636" y="69" width="11" height="11" rx="3" fill="#414868" fill-opacity="0.25"/>
    <rect x="636" y="83" width="11" height="11" rx="3" fill="#9be9a8" fill-opacity="1"/>
    <rect x="636" y="97" width="11" height="11" rx="3" fill="#9be9a8" fill-opacity="1"/>
    <rect x="636" y="111" width="11" height="11" rx="3" fill="#9be9a8" fill-opacity="1"/>
    <rect x="636" y="125" width="11" height="11" rx="3" fill="#414868" fill-opacity="0.25"/>
    <rect x="636" y="139" width="11" height="11" rx="3" fill="#414868" fill-opacity="0.25"/>
    <rect x="650" y="55" width="11" height="11" rx="3" fill="#414868" fill-opacity="0.25"/>
    <rect x="650" y="69" width="11" height="11" rx="3" fill="#414868" fill-opacity="0.25"/>
    <rect x="650" y="83" width="11" height="11" rx="3" fill="#414868" fill-opacity="0.25"/>
    <rect x="650" y="97" width="11" height="11" rx="3" fill="#414868" fill-opacity="0.25"/>
    <rect x="650" y="111" width="11" height="11" rx="3" fill="#414868" fill-opacity="0.25"/>
    <rect x="650" y="125" width="11" height="11" rx="3" fill="#414868" fill-opacity="0.25"/>
    <rect x="650" y="139" width="11" height="11" rx="3" fill="#414868" fill-opacity="0.25"/>
    <rect x="664" y="55" width="11" height="11" rx="3" fill="#414868" fill-opacity="0.25"/>
    <rect x="664" y="69" width="11" height="11" rx="3" fill="#414868" fill-opacity="0.25"/>
    <rect x="664" y="83" width="11" height="11" rx="3" fill="#414868" fill-opacity="0.25"/>
    <rect x="664" y="97" width="11" height="11" rx="3" fill="#414868" fill-opacity="0.25"/>
    <rect x="664" y="111" width="11" height="11" rx="3" fill="#414868" fill-opacity="0.25"/>
    <rect x="664" y="125" width="11" height="11" rx="3" fill="#9be9a8" fill-opacity="1"/>
    <rect x="664" y="139" width="11" height="11" rx="3" fill="#9be9a8" fill-opacity="1"/>
    <rect x="678" y="55" width="11" height="11" rx="3" fill="#9be9a8" fill-opacity="1"/>
    <rect x="678" y="69" width="11" height="11" rx="3" fill="#414868" fill-opacity="0.25"/>
    <rect x="678" y="83" width="11" height="11" rx="3" fill="#414868" fill-opacity="0.25"/>
    <rect x="678" y="97" width="11" height="11" rx="3" fill="#414868" fill-opacity="0.25"/>
    <rect x="678" y="111" width="11" height="11" rx="3" fill="#9be9a8" fill-opacity="1"/>
    <rect x="678" y="125" width="11" height="11" rx="3" fill="#9be9a8" fill-opacity="1"/>
    <rect x="678" y="139" width="11" height="11" rx="3" fill="#414868" fill-opacity="0.25"/>
    <rect x="692" y="55" width="11" height="11" rx="3" fill="#9be9a8" fill-opacity="1"/>
    <rect x="692" y="69" width="11" height="11" rx="3" fill="#414868" fill-opacity="0.25"/>
    <rect x="692" y="83" width="11" height="11" rx="3" fill="#414868" fill-opacity="0.25"/>
    <rect x="692" y="97" width="11" height="11" rx="3" fill="#414868" fill-opacity="0.25"/>
    <rect x="692" y="111" width="11" height="11" rx="3" fill="#414868" fill-opacity="0.25"/>
    <rect x="692" y="125" width="11" height="11" rx="3" fill="#414868" fill-opacity="0.25"/>
    <rect x="692" y="139" width="11" height="11" rx="3" fill="#414868" fill-opacity="0.25"/>
    <rect x="706" y="55" width="11" height="11" rx="3" fill="#414868" fill-opacity="0.25"/>
    <rect x="706" y="69" width="11" height="11" rx="3" fill="#414868" fill-opacity="0.25"/>
    <rect x="706" y="83" width="11" height="11" rx="3" fill="#9be9a8" fill-opacity="1"/>
    <rect x="706" y="97" width="11" height="11" rx="3" fill="#414868" fill-opacity="0.25"/>
    <rect x="706" y="111" width="11" height="11" rx="3" fill="#414868" fill-opacity="0.25"/>
    <rect x="706" y="125" width="11" height="11" rx="3" fill="#9be9a8" fill-opacity="1"/>
    <rect x="706" y="139" width="11" height="11" rx="3" fill="#414868" fill-opacity="0.25"/>
    <rect x="720" y="55" width="11" height="11" rx="3" fill="#9be9a8" fill-opacity="1"/>
    <rect x="720" y="69" width="11" height="11" rx="3" fill="#414868" fill-opacity="0.25"/>
    <rect x="720" y="83" width="11" height="11" rx="3" fill="#9be9a8" fill-opacity="1"/>
    <rect x="720" y="97" width="11" height="11" rx="3" fill="#414868" fill-opacity="0.25"/>
    <rect x="720" y="111" width="11" height="11" rx="3" fill="#9be9a8" fill-opacity="1"/>
    <rect x="720" y="125" width="11" height="11" rx="3" fill="#414868" fill-opacity="0.25"/>
    <rect x="720" y="139" width="11" height="11" rx="3" fill="#414868" fill-opacity="0.25"/>
    <rect x="734" y="55" width="11" height="11" rx="3" fill="#414868" fill-opacity="0.25"/>
    <rect x="734" y="69" width="11" height="11" rx="3" fill="#9be9a8" fill-opacity="1"/>
    <rect x="734" y="83" width="11" height="11" rx="3" fill="#414868" fill-opacity="0.25"/>
    <rect x="734" y="97" width="11" height="11" rx="3" fill="#414868" fill-opacity="0.25"/>
    <rect x="734" y="111" width="11" height="11" rx="3" fill="#414868" fill-opacity="0.25"/>
    <rect x="734" y="125" width="11" height="11" rx="3" fill="#414868" fill-opacity="0.25"/>
    <rect x="734" y="139" width="11" height="11" rx="3" fill="#9be9a8" fill-opacity="1"/>
    <rect x="748" y="55" width="11" height="11" rx="3" fill="#9be9a8" fill-opacity="1"/>
    <rect x="748" y="69" width="11" height="11" rx="3" fill="#9be9a8" fill-opacity="1"/>
    <rect x="748" y="83" width="11" height="11" rx="3" fill="#9be9a8" fill-opacity="1"/>
    <rect x="748" y="97" width="11" height="11" rx="3" fill="#40c463" fill-opacity="1"/>
    <rect x="748" y="111" width="11" height="11" rx="3" fill="#30a14e" fill-opacity="1"/>
    <rect x="748" y="125" width="11" height="11" rx="3" fill="#30a14e" fill-opacity="1"/>
    <text x="20" y="178" fill="#a9b1d6" font-size="11" font-family="sans-serif">Less</text>
    <rect x="55" y="169" width="11" height="11" rx="3" fill="#414868" fill-opacity="0.4"/>
    <rect x="71" y="169" width="11" height="11" rx="3" fill="#0e4429"/>
    <rect x="87" y="169" width="11" height="11" rx="3" fill="#006d32"/>
    <rect x="103" y="169" width="11" height="11" rx="3" fill="#26a641"/>
    <rect x="119" y="169" width="11" height="11" rx="3" fill="#39d353"/>
    <text x="140" y="178" fill="#a9b1d6" font-size="11" font-family="sans-serif">More</text>
</svg>