<svg xmlns="http://www.w3.org/2000/svg" width="722" height="179" viewBox="0 0 722 179">
  <rect fill="#1a1b26" width="722" height="179" rx="6"/>
  <text x="15" y="30" fill="#7aa2f7" font-size="16" font-weight="600" font-family="Segoe UI,Ubuntu,sans-serif">Contribution Activity</text>
  <rect x="15" y="50" width="10" height="10" rx="2" fill="#292e42"/><rect x="15" y="63" width="10" height="10" rx="2" fill="#292e42"/><rect x="15" y="76" width="10" height="10" rx="2" fill="#292e42"/><rect x="15" y="89" width="10" height="10" rx="2" fill="#292e42"/><rect x="15" y="102" width="10" height="10" rx="2" fill="#292e42"/><rect x="15" y="115" width="10" height="10" rx="2" fill="#292e42"/><rect x="15" y="128" width="10" height="10" rx="2" fill="#292e42"/><rect x="28" y="50" width="10" height="10" rx="2" fill="#292e42"/><rect x="28" y="63" width="10" height="10" rx="2" fill="#9be9a8"/><rect x="28" y="76" width="10" height="10" rx="2" fill="#292e42"/><rect x="28" y="89" width="10" height="10" rx="2" fill="#292e42"/><rect x="28" y="102" width="10" height="10" rx="2" fill="#292e42"/><rect x="28" y="115" width="10" height="10" rx="2" fill="#216e39"/><rect x="28" y="128" width="10" height="10" rx="2" fill="#9be9a8"/><rect x="41" y="50" width="10" height="10" rx="2" fill="#9be9a8"/><rect x="41" y="63" width="10" height="10" rx="2" fill="#292e42"/><rect x="41" y="76" width="10" height="10" rx="2" fill="#292e42"/><rect x="41" y="89" width="10" height="10" rx="2" fill="#292e42"/><rect x="41" y="102" width="10" height="10" rx="2" fill="#292e42"/><rect x="41" y="115" width="10" height="10" rx="2" fill="#292e42"/><rect x="41" y="128" width="10" height="10" rx="2" fill="#292e42"/><rect x="54" y="50" width="10" height="10" rx="2" fill="#292e42"/><rect x="54" y="63" width="10" height="10" rx="2" fill="#292e42"/><rect x="54" y="76" width="10" height="10" rx="2" fill="#292e42"/><rect x="54" y="89" width="10" height="10" rx="2" fill="#30a14e"/><rect x="54" y="102" width="10" height="10" rx="2" fill="#9be9a8"/><rect x="54" y="115" width="10" height="10" rx="2" fill="#292e42"/><rect x="54" y="128" width="10" height="10" rx="2" fill="#292e42"/><rect x="67" y="50" width="10" height="10" rx="2" fill="#292e42"/><rect x="67" y="63" width="10" height="10" rx="2" fill="#292e42"/><rect x="67" y="76" width="10" height="10" rx="2" fill="#292e42"/><rect x="67" y="89" width="10" height="10" rx="2" fill="#292e42"/><rect x="67" y="102" width="10" height="10" rx="2" fill="#9be9a8"/><rect x="67" y="115" width="10" height="10" rx="2" fill="#292e42"/><rect x="67" y="128" width="10" height="10" rx="2" fill="#292e42"/><rect x="80" y="50" width="10" height="10" rx="2" fill="#292e42"/><rect x="80" y="63" width="10" height="10" rx="2" fill="#292e42"/><rect x="80" y="76" width="10" height="10" rx="2" fill="#40c463"/><rect x="80" y="89" width="10" height="10" rx="2" fill="#292e42"/><rect x="80" y="102" width="10" height="10" rx="2" fill="#292e42"/><rect x="80" y="115" width="10" height="10" rx="2" fill="#292e42"/><rect x="80" y="128" width="10" height="10" rx="2" fill="#292e42"/><rect x="93" y="50" width="10" height="10" rx="2" fill="#292e42"/><rect x="93" y="63" width="10" height="10" rx="2" fill="#292e42"/><rect x="93" y="76" width="10" height="10" rx="2" fill="#292e42"/><rect x="93" y="89" width="10" height="10" rx="2" fill="#292e42"/><rect x="93" y="102" width="10" height="10" rx="2" fill="#292e42"/><rect x="93" y="115" width="10" height="10" rx="2" fill="#9be9a8"/><rect x="93" y="128" width="10" height="10" rx="2" fill="#292e42"/><rect x="106" y="50" width="10" height="10" rx="2" fill="#292e42"/><rect x="106" y="63" width="10" height="10" rx="2" fill="#292e42"/><rect x="106" y="76" width="10" height="10" rx="2" fill="#292e42"/><rect x="106" y="89" width="10" height="10" rx="2" fill="#292e42"/><rect x="106" y="102" width="10" height="10" rx="2" fill="#292e42"/><rect x="106" y="115" width="10" height="10" rx="2" fill="#292e42"/><rect x="106" y="128" width="10" height="10" rx="2" fill="#292e42"/><rect x="119" y="50" width="10" height="10" rx="2" fill="#292e42"/><rect x="119" y="63" width="10" height="10" rx="2" fill="#292e42"/><rect x="119" y="76" width="10" height="10" rx="2" fill="#292e42"/><rect x="119" y="89" width="10" height="10" rx="2" fill="#292e42"/><rect x="119" y="102" width="10" height="10" rx="2" fill="#292e42"/><rect x="119" y="115" width="10" height="10" rx="2" fill="#292e42"/><rect x="119" y="128" width="10" height="10" rx="2" fill="#292e42"/><rect x="132" y="50" width="10" height="10" rx="2" fill="#292e42"/><rect x="132" y="63" width="10" height="10" rx="2" fill="#292e42"/><rect x="132" y="76" width="10" height="10" rx="2" fill="#292e42"/><rect x="132" y="89" width="10" height="10" rx="2" fill="#292e42"/><rect x="132" y="102" width="10" height="10" rx="2" fill="#292e42"/><rect x="132" y="115" width="10" height="10" rx="2" fill="#292e42"/><rect x="132" y="128" width="10" height="10" rx="2" fill="#292e42"/><rect x="145" y="50" width="10" height="10" rx="2" fill="#292e42"/><rect x="145" y="63" width="10" height="10" rx="2" fill="#292e42"/><rect x="145" y="76" width="10" height="10" rx="2" fill="#292e42"/><rect x="145" y="89" width="10" height="10" rx="2" fill="#292e42"/><rect x="145" y="102" width="10" height="10" rx="2" fill="#292e42"/><rect x="145" y="115" width="10" height="10" rx="2" fill="#292e42"/><rect x="145" y="128" width="10" height="10" rx="2" fill="#292e42"/><rect x="158" y="50" width="10" height="10" rx="2" fill="#292e42"/><rect x="158" y="63" width="10" height="10" rx="2" fill="#292e42"/><rect x="158" y="76" width="10" height="10" rx="2" fill="#292e42"/><rect x="158" y="89" width="10" height="10" rx="2" fill="#292e42"/><rect x="158" y="102" width="10" height="10" rx="2" fill="#292e42"/><rect x="158" y="115" width="10" height="10" rx="2" fill="#292e42"/><rect x="158" y="128" width="10" height="10" rx="2" fill="#292e42"/><rect x="171" y="50" width="10" height="10" rx="2" fill="#292e42"/><rect x="171" y="63" width="10" height="10" rx="2" fill="#292e42"/><rect x="171" y="76" width="10" height="10" rx="2" fill="#292e42"/><rect x="171" y="89" width="10" height="10" rx="2" fill="#292e42"/><rect x="171" y="102" width="10" height="10" rx="2" fill="#292e42"/><rect x="171" y="115" width="10" height="10" rx="2" fill="#292e42"/><rect x="171" y="128" width="10" height="10" rx="2" fill="#292e42"/><rect x="184" y="50" width="10" height="10" rx="2" fill="#292e42"/><rect x="184" y="63" width="10" height="10" rx="2" fill="#292e42"/><rect x="184" y="76" width="10" height="10" rx="2" fill="#292e42"/><rect x="184" y="89" width="10" height="10" rx="2" fill="#292e42"/><rect x="184" y="102" width="10" height="10" rx="2" fill="#292e42"/><rect x="184" y="115" width="10" height="10" rx="2" fill="#292e42"/><rect x="184" y="128" width="10" height="10" rx="2" fill="#292e42"/><rect x="197" y="50" width="10" height="10" rx="2" fill="#292e42"/><rect x="197" y="63" width="10" height="10" rx="2" fill="#292e42"/><rect x="197" y="76" width="10" height="10" rx="2" fill="#292e42"/><rect x="197" y="89" width="10" height="10" rx="2" fill="#292e42"/><rect x="197" y="102" width="10" height="10" rx="2" fill="#40c463"/><rect x="197" y="115" width="10" height="10" rx="2" fill="#30a14e"/><rect x="197" y="128" width="10" height="10" rx="2" fill="#30a14e"/><rect x="210" y="50" width="10" height="10" rx="2" fill="#216e39"/><rect x="210" y="63" width="10" height="10" rx="2" fill="#9be9a8"/><rect x="210" y="76" width="10" height="10" rx="2" fill="#292e42"/><rect x="210" y="89" width="10" height="10" rx="2" fill="#292e42"/><rect x="210" y="102" width="10" height="10" rx="2" fill="#292e42"/><rect x="210" y="115" width="10" height="10" rx="2" fill="#292e42"/><rect x="210" y="128" width="10" height="10" rx="2" fill="#292e42"/><rect x="223" y="50" width="10" height="10" rx="2" fill="#292e42"/><rect x="223" y="63" width="10" height="10" rx="2" fill="#292e42"/><rect x="223" y="76" width="10" height="10" rx="2" fill="#292e42"/><rect x="223" y="89" width="10" height="10" rx="2" fill="#9be9a8"/><rect x="223" y="102" width="10" height="10" rx="2" fill="#9be9a8"/><rect x="223" y="115" width="10" height="10" rx="2" fill="#9be9a8"/><rect x="223" y="128" width="10" height="10" rx="2" fill="#40c463"/><rect x="236" y="50" width="10" height="10" rx="2" fill="#292e42"/><rect x="236" y="63" width="10" height="10" rx="2" fill="#292e42"/><rect x="236" y="76" width="10" height="10" rx="2" fill="#292e42"/><rect x="236" y="89" width="10" height="10" rx="2" fill="#292e42"/><rect x="236" y="102" width="10" height="10" rx="2" fill="#292e42"/><rect x="236" y="115" width="10" height="10" rx="2" fill="#9be9a8"/><rect x="236" y="128" width="10" height="10" rx="2" fill="#292e42"/><rect x="249" y="50" width="10" height="10" rx="2" fill="#292e42"/><rect x="249" y="63" width="10" height="10" rx="2" fill="#292e42"/><rect x="249" y="76" width="10" height="10" rx="2" fill="#216e39"/><rect x="249" y="89" width="10" height="10" rx="2" fill="#30a14e"/><rect x="249" y="102" width="10" height="10" rx="2" fill="#9be9a8"/><rect x="249" y="115" width="10" height="10" rx="2" fill="#292e42"/><rect x="249" y="128" width="10" height="10" rx="2" fill="#292e42"/><rect x="262" y="50" width="10" height="10" rx="2" fill="#292e42"/><rect x="262" y="63" width="10" height="10" rx="2" fill="#292e42"/><rect x="262" y="76" width="10" height="10" rx="2" fill="#216e39"/><rect x="262" y="89" width="10" height="10" rx="2" fill="#40c463"/><rect x="262" y="102" width="10" height="10" rx="2" fill="#9be9a8"/><rect x="262" y="115" width="10" height="10" rx="2" fill="#9be9a8"/><rect x="262" y="128" width="10" height="10" rx="2" fill="#9be9a8"/><rect x="275" y="50" width="10" height="10" rx="2" fill="#292e42"/><rect x="275" y="63" width="10" height="10" rx="2" fill="#9be9a8"/><rect x="275" y="76" width="10" height="10" rx="2" fill="#292e42"/><rect x="275" y="89" width="10" height="10" rx="2" fill="#292e42"/><rect x="275" y="102" width="10" height="10" rx="2" fill="#292e42"/><rect x="275" y="115" width="10" height="10" rx="2" fill="#292e42"/><rect x="275" y="128" width="10" height="10" rx="2" fill="#292e42"/><rect x="288" y="50" width="10" height="10" rx="2" fill="#40c463"/><rect x="288" y="63" width="10" height="10" rx="2" fill="#292e42"/><rect x="288" y="76" width="10" height="10" rx="2" fill="#9be9a8"/><rect x="288" y="89" width="10" height="10" rx="2" fill="#9be9a8"/><rect x="288" y="102" width="10" height="10" rx="2" fill="#9be9a8"/><rect x="288" y="115" width="10" height="10" rx="2" fill="#292e42"/><rect x="288" y="128" width="10" height="10" rx="2" fill="#292e42"/><rect x="301" y="50" width="10" height="10" rx="2" fill="#292e42"/><rect x="301" y="63" width="10" height="10" rx="2" fill="#292e42"/><rect x="301" y="76" width="10" height="10" rx="2" fill="#292e42"/><rect x="301" y="89" width="10" height="10" rx="2" fill="#292e42"/><rect x="301" y="102" width="10" height="10" rx="2" fill="#292e42"/><rect x="301" y="115" width="10" height="10" rx="2" fill="#292e42"/><rect x="301" y="128" width="10" height="10" rx="2" fill="#292e42"/><rect x="314" y="50" width="10" height="10" rx="2" fill="#292e42"/><rect x="314" y="63" width="10" height="10" rx="2" fill="#292e42"/><rect x="314" y="76" width="10" height="10" rx="2" fill="#292e42"/><rect x="314" y="89" width="10" height="10" rx="2" fill="#292e42"/><rect x="314" y="102" width="10" height="10" rx="2" fill="#292e42"/><rect x="314" y="115" width="10" height="10" rx="2" fill="#292e42"/><rect x="314" y="128" width="10" height="10" rx="2" fill="#292e42"/><rect x="327" y="50" width="10" height="10" rx="2" fill="#292e42"/><rect x="327" y="63" width="10" height="10" rx="2" fill="#292e42"/><rect x="327" y="76" width="10" height="10" rx="2" fill="#292e42"/><rect x="327" y="89" width="10" height="10" rx="2" fill="#9be9a8"/><rect x="327" y="102" width="10" height="10" rx="2" fill="#292e42"/><rect x="327" y="115" width="10" height="10" rx="2" fill="#292e42"/><rect x="327" y="128" width="10" height="10" rx="2" fill="#292e42"/><rect x="340" y="50" width="10" height="10" rx="2" fill="#292e42"/><rect x="340" y="63" width="10" height="10" rx="2" fill="#292e42"/><rect x="340" y="76" width="10" height="10" rx="2" fill="#292e42"/><rect x="340" y="89" width="10" height="10" rx="2" fill="#292e42"/><rect x="340" y="102" width="10" height="10" rx="2" fill="#292e42"/><rect x="340" y="115" width="10" height="10" rx="2" fill="#292e42"/><rect x="340" y="128" width="10" height="10" rx="2" fill="#292e42"/><rect x="353" y="50" width="10" height="10" rx="2" fill="#292e42"/><rect x="353" y="63" width="10" height="10" rx="2" fill="#292e42"/><rect x="353" y="76" width="10" height="10" rx="2" fill="#292e42"/><rect x="353" y="89" width="10" height="10" rx="2" fill="#292e42"/><rect x="353" y="102" width="10" height="10" rx="2" fill="#292e42"/><rect x="353" y="115" width="10" height="10" rx="2" fill="#292e42"/><rect x="353" y="128" width="10" height="10" rx="2" fill="#9be9a8"/><rect x="366" y="50" width="10" height="10" rx="2" fill="#216e39"/><rect x="366" y="63" width="10" height="10" rx="2" fill="#292e42"/><rect x="366" y="76" width="10" height="10" rx="2" fill="#292e42"/><rect x="366" y="89" width="10" height="10" rx="2" fill="#292e42"/><rect x="366" y="102" width="10" height="10" rx="2" fill="#292e42"/><rect x="366" y="115" width="10" height="10" rx="2" fill="#292e42"/><rect x="366" y="128" width="10" height="10" rx="2" fill="#292e42"/><rect x="379" y="50" width="10" height="10" rx="2" fill="#9be9a8"/><rect x="379" y="63" width="10" height="10" rx="2" fill="#30a14e"/><rect x="379" y="76" width="10" height="10" rx="2" fill="#40c463"/><rect x="379" y="89" width="10" height="10" rx="2" fill="#40c463"/><rect x="379" y="102" width="10" height="10" rx="2" fill="#40c463"/><rect x="379" y="115" width="10" height="10" rx="2" fill="#40c463"/><rect x="379" y="128" width="10" height="10" rx="2" fill="#40c463"/><rect x="392" y="50" width="10" height="10" rx="2" fill="#292e42"/><rect x="392" y="63" width="10" height="10" rx="2" fill="#292e42"/><rect x="392" y="76" width="10" height="10" rx="2" fill="#292e42"/><rect x="392" y="89" width="10" height="10" rx="2" fill="#9be9a8"/><rect x="392" y="102" width="10" height="10" rx="2" fill="#292e42"/><rect x="392" y="115" width="10" height="10" rx="2" fill="#292e42"/><rect x="392" y="128" width="10" height="10" rx="2" fill="#292e42"/><rect x="405" y="50" width="10" height="10" rx="2" fill="#292e42"/><rect x="405" y="63" width="10" height="10" rx="2" fill="#292e42"/><rect x="405" y="76" width="10" height="10" rx="2" fill="#9be9a8"/><rect x="405" y="89" width="10" height="10" rx="2" fill="#9be9a8"/><rect x="405" y="102" width="10" height="10" rx="2" fill="#292e42"/><rect x="405" y="115" width="10" height="10" rx="2" fill="#40c463"/><rect x="405" y="128" width="10" height="10" rx="2" fill="#292e42"/><rect x="418" y="50" width="10" height="10" rx="2" fill="#9be9a8"/><rect x="418" y="63" width="10" height="10" rx="2" fill="#292e42"/><rect x="418" y="76" width="10" height="10" rx="2" fill="#9be9a8"/><rect x="418" y="89" width="10" height="10" rx="2" fill="#292e42"/><rect x="418" y="102" width="10" height="10" rx="2" fill="#292e42"/><rect x="418" y="115" width="10" height="10" rx="2" fill="#292e42"/><rect x="418" y="128" width="10" height="10" rx="2" fill="#292e42"/><rect x="431" y="50" width="10" height="10" rx="2" fill="#292e42"/><rect x="431" y="63" width="10" height="10" rx="2" fill="#292e42"/><rect x="431" y="76" width="10" height="10" rx="2" fill="#292e42"/><rect x="431" y="89" width="10" height="10" rx="2" fill="#292e42"/><rect x="431" y="102" width="10" height="10" rx="2" fill="#292e42"/><rect x="431" y="115" width="10" height="10" rx="2" fill="#292e42"/><rect x="431" y="128" width="10" height="10" rx="2" fill="#292e42"/><rect x="444" y="50" width="10" height="10" rx="2" fill="#292e42"/><rect x="444" y="63" width="10" height="10" rx="2" fill="#292e42"/><rect x="444" y="76" width="10" height="10" rx="2" fill="#292e42"/><rect x="444" y="89" width="10" height="10" rx="2" fill="#292e42"/><rect x="444" y="102" width="10" height="10" rx="2" fill="#292e42"/><rect x="444" y="115" width="10" height="10" rx="2" fill="#292e42"/><rect x="444" y="128" width="10" height="10" rx="2" fill="#292e42"/><rect x="457" y="50" width="10" height="10" rx="2" fill="#292e42"/><rect x="457" y="63" width="10" height="10" rx="2" fill="#292e42"/><rect x="457" y="76" width="10" height="10" rx="2" fill="#292e42"/><rect x="457" y="89" width="10" height="10" rx="2" fill="#292e42"/><rect x="457" y="102" width="10" height="10" rx="2" fill="#292e42"/><rect x="457" y="115" width="10" height="10" rx="2" fill="#292e42"/><rect x="457" y="128" width="10" height="10" rx="2" fill="#292e42"/><rect x="470" y="50" width="10" height="10" rx="2" fill="#292e42"/><rect x="470" y="63" width="10" height="10" rx="2" fill="#292e42"/><rect x="470" y="76" width="10" height="10" rx="2" fill="#292e42"/><rect x="470" y="89" width="10" height="10" rx="2" fill="#292e42"/><rect x="470" y="102" width="10" height="10" rx="2" fill="#292e42"/><rect x="470" y="115" width="10" height="10" rx="2" fill="#292e42"/><rect x="470" y="128" width="10" height="10" rx="2" fill="#292e42"/><rect x="483" y="50" width="10" height="10" rx="2" fill="#292e42"/><rect x="483" y="63" width="10" height="10" rx="2" fill="#292e42"/><rect x="483" y="76" width="10" height="10" rx="2" fill="#292e42"/><rect x="483" y="89" width="10" height="10" rx="2" fill="#292e42"/><rect x="483" y="102" width="10" height="10" rx="2" fill="#292e42"/><rect x="483" y="115" width="10" height="10" rx="2" fill="#292e42"/><rect x="483" y="128" width="10" height="10" rx="2" fill="#292e42"/><rect x="496" y="50" width="10" height="10" rx="2" fill="#292e42"/><rect x="496" y="63" width="10" height="10" rx="2" fill="#292e42"/><rect x="496" y="76" width="10" height="10" rx="2" fill="#292e42"/><rect x="496" y="89" width="10" height="10" rx="2" fill="#292e42"/><rect x="496" y="102" width="10" height="10" rx="2" fill="#292e42"/><rect x="496" y="115" width="10" height="10" rx="2" fill="#9be9a8"/><rect x="496" y="128" width="10" height="10" rx="2" fill="#9be9a8"/><rect x="509" y="50" width="10" height="10" rx="2" fill="#292e42"/><rect x="509" y="63" width="10" height="10" rx="2" fill="#9be9a8"/><rect x="509" y="76" width="10" height="10" rx="2" fill="#292e42"/><rect x="509" y="89" width="10" height="10" rx="2" fill="#216e39"/><rect x="509" y="102" width="10" height="10" rx="2" fill="#9be9a8"/><rect x="509" y="115" width="10" height="10" rx="2" fill="#216e39"/><rect x="509" y="128" width="10" height="10" rx="2" fill="#9be9a8"/><rect x="522" y="50" width="10" height="10" rx="2" fill="#9be9a8"/><rect x="522" y="63" width="10" height="10" rx="2" fill="#40c463"/><rect x="522" y="76" width="10" height="10" rx="2" fill="#9be9a8"/><rect x="522" y="89" width="10" height="10" rx="2" fill="#292e42"/><rect x="522" y="102" width="10" height="10" rx="2" fill="#292e42"/><rect x="522" y="115" width="10" height="10" rx="2" fill="#292e42"/><rect x="522" y="128" width="10" height="10" rx="2" fill="#292e42"/><rect x="535" y="50" width="10" height="10" rx="2" fill="#9be9a8"/><rect x="535" y="63" width="10" height="10" rx="2" fill="#9be9a8"/><rect x="535" y="76" width="10" height="10" rx="2" fill="#9be9a8"/><rect x="535" y="89" width="10" height="10" rx="2" fill="#292e42"/><rect x="535" y="102" width="10" height="10" rx="2" fill="#292e42"/><rect x="535" y="115" width="10" height="10" rx="2" fill="#9be9a8"/><rect x="535" y="128" width="10" height="10" rx="2" fill="#9be9a8"/><rect x="548" y="50" width="10" height="10" rx="2" fill="#292e42"/><rect x="548" y="63" width="10" height="10" rx="2" fill="#40c463"/><rect x="548" y="76" width="10" height="10" rx="2" fill="#9be9a8"/><rect x="548" y="89" width="10" height="10" rx="2" fill="#216e39"/><rect x="548" y="102" width="10" height="10" rx="2" fill="#292e42"/><rect x="548" y="115" width="10" height="10" rx="2" fill="#30a14e"/><rect x="548" y="128" width="10" height="10" rx="2" fill="#9be9a8"/><rect x="561" y="50" width="10" height="10" rx="2" fill="#40c463"/><rect x="561" y="63" width="10" height="10" rx="2" fill="#9be9a8"/><rect x="561" y="76" width="10" height="10" rx="2" fill="#40c463"/><rect x="561" y="89" width="10" height="10" rx="2" fill="#9be9a8"/><rect x="561" y="102" width="10" height="10" rx="2" fill="#292e42"/><rect x="561" y="115" width="10" height="10" rx="2" fill="#292e42"/><rect x="561" y="128" width="10" height="10" rx="2" fill="#292e42"/><rect x="574" y="50" width="10" height="10" rx="2" fill="#292e42"/><rect x="574" y="63" width="10" height="10" rx="2" fill="#292e42"/><rect x="574" y="76" width="10" height="10" rx="2" fill="#292e42"/><rect x="574" y="89" width="10" height="10" rx="2" fill="#9be9a8"/><rect x="574" y="102" width="10" height="10" rx="2" fill="#292e42"/><rect x="574" y="115" width="10" height="10" rx="2" fill="#9be9a8"/><rect x="574" y="128" width="10" height="10" rx="2" fill="#292e42"/><rect x="587" y="50" width="10" height="10" rx="2" fill="#292e42"/><rect x="587" y="63" width="10" height="10" rx="2" fill="#292e42"/><rect x="587" y="76" width="10" height="10" rx="2" fill="#9be9a8"/><rect x="587" y="89" width="10" height="10" rx="2" fill="#9be9a8"/><rect x="587" y="102" width="10" height="10" rx="2" fill="#9be9a8"/><rect x="587" y="115" width="10" height="10" rx="2" fill="#292e42"/><rect x="587" y="128" width="10" height="10" rx="2" fill="#292e42"/><rect x="600" y="50" width="10" height="10" rx="2" fill="#292e42"/><rect x="600" y="63" width="10" height="10" rx="2" fill="#292e42"/><rect x="600" y="76" width="10" height="10" rx="2" fill="#292e42"/><rect x="600" y="89" width="10" height="10" rx="2" fill="#292e42"/><rect x="600" y="102" width="10" height="10" rx="2" fill="#292e42"/><rect x="600" y="115" width="10" height="10" rx="2" fill="#292e42"/><rect x="600" y="128" width="10" height="10" rx="2" fill="#292e42"/><rect x="613" y="50" width="10" height="10" rx="2" fill="#292e42"/><rect x="613" y="63" width="10" height="10" rx="2" fill="#292e42"/><rect x="613" y="76" width="10" height="10" rx="2" fill="#292e42"/><rect x="613" y="89" width="10" height="10" rx="2" fill="#292e42"/><rect x="613" y="102" width="10" height="10" rx="2" fill="#292e42"/><rect x="613" y="115" width="10" height="10" rx="2" fill="#9be9a8"/><rect x="613" y="128" width="10" height="10" rx="2" fill="#9be9a8"/><rect x="626" y="50" width="10" height="10" rx="2" fill="#9be9a8"/><rect x="626" y="63" width="10" height="10" rx="2" fill="#292e42"/><rect x="626" y="76" width="10" height="10" rx="2" fill="#292e42"/><rect x="626" y="89" width="10" height="10" rx="2" fill="#292e42"/><rect x="626" y="102" width="10" height="10" rx="2" fill="#9be9a8"/><rect x="626" y="115" width="10" height="10" rx="2" fill="#9be9a8"/><rect x="626" y="128" width="10" height="10" rx="2" fill="#292e42"/><rect x="639" y="50" width="10" height="10" rx="2" fill="#9be9a8"/><rect x="639" y="63" width="10" height="10" rx="2" fill="#292e42"/><rect x="639" y="76" width="10" height="10" rx="2" fill="#292e42"/><rect x="639" y="89" width="10" height="10" rx="2" fill="#292e42"/><rect x="639" y="102" width="10" height="10" rx="2" fill="#292e42"/><rect x="639" y="115" width="10" height="10" rx="2" fill="#292e42"/><rect x="639" y="128" width="10" height="10" rx="2" fill="#292e42"/><rect x="652" y="50" width="10" height="10" rx="2" fill="#292e42"/><rect x="652" y="63" width="10" height="10" rx="2" fill="#292e42"/><rect x="652" y="76" width="10" height="10" rx="2" fill="#9be9a8"/><rect x="652" y="89" width="10" height="10" rx="2" fill="#292e42"/><rect x="652" y="102" width="10" height="10" rx="2" fill="#292e42"/><rect x="652" y="115" width="10" height="10" rx="2" fill="#9be9a8"/><rect x="652" y="128" width="10" height="10" rx="2" fill="#292e42"/><rect x="665" y="50" width="10" height="10" rx="2" fill="#9be9a8"/><rect x="665" y="63" width="10" height="10" rx="2" fill="#292e42"/><rect x="665" y="76" width="10" height="10" rx="2" fill="#9be9a8"/><rect x="665" y="89" width="10" height="10" rx="2" fill="#292e42"/><rect x="665" y="102" width="10" height="10" rx="2" fill="#9be9a8"/><rect x="665" y="115" width="10" height="10" rx="2" fill="#292e42"/><rect x="665" y="128" width="10" height="10" rx="2" fill="#292e42"/><rect x="678" y="50" width="10" height="10" rx="2" fill="#292e42"/><rect x="678" y="63" width="10" height="10" rx="2" fill="#9be9a8"/><rect x="678" y="76" width="10" height="10" rx="2" fill="#292e42"/><rect x="678" y="89" width="10" height="10" rx="2" fill="#292e42"/><rect x="678" y="102" width="10" height="10" rx="2" fill="#292e42"/><rect x="678" y="115" width="10" height="10" rx="2" fill="#292e42"/><rect x="678" y="128" width="10" height="10" rx="2" fill="#9be9a8"/><rect x="691" y="50" width="10" height="10" rx="2" fill="#9be9a8"/><rect x="691" y="63" width="10" height="10" rx="2" fill="#9be9a8"/><rect x="691" y="76" width="10" height="10" rx="2" fill="#9be9a8"/><rect x="691" y="89" width="10" height="10" rx="2" fill="#40c463"/><rect x="691" y="102" width="10" height="10" rx="2" fill="#30a14e"/><rect x="691" y="115" width="10" height="10" rx="2" fill="#40c463"/>
  <text x="15" y="164" fill="#a9b1d6" font-size="11" font-family="sans-serif">Less</text><rect x="50" y="155" width="10" height="10" rx="2" fill="#292e42"/><rect x="65" y="155" width="10" height="10" rx="2" fill="#0e4429"/><rect x="80" y="155" width="10" height="10" rx="2" fill="#006d32"/><rect x="95" y="155" width="10" height="10" rx="2" fill="#26a641"/><rect x="110" y="155" width="10" height="10" rx="2" fill="#39d353"/><text x="130" y="164" fill="#a9b1d6" font-size="11" font-family="sans-serif">More</text>
</svg>