<?xml version="1.0" encoding="UTF-8"?>
<!-- Generated: 2026-05-16T13:16:26.303992 -->
<svg xmlns="http://www.w3.org/2000/svg" width="495" height="195" viewBox="0 0 495 195">
  <defs>
    <linearGradient id="bgGrad" x1="0%" y1="0%" x2="100%" y2="100%">
      <stop offset="0%" stop-color="#16161e"/>
      <stop offset="100%" stop-color="#1a1b26"/>
    </linearGradient>
    <linearGradient id="neonBlue" x1="0%" y1="0%" x2="100%" y2="0%">
      <stop offset="0%" stop-color="#7aa2f7"/>
      <stop offset="100%" stop-color="#7dcfff"/>
    </linearGradient>
    <linearGradient id="neonPurple" x1="0%" y1="0%" x2="100%" y2="0%">
      <stop offset="0%" stop-color="#bb9af7"/>
      <stop offset="100%" stop-color="#ff007f"/>
    </linearGradient>
    <linearGradient id="neonGreen" x1="0%" y1="0%" x2="100%" y2="0%">
      <stop offset="0%" stop-color="#9ece6a"/>
      <stop offset="100%" stop-color="#7dcfff"/>
    </linearGradient>
    <linearGradient id="neonOrange" x1="0%" y1="0%" x2="100%" y2="0%">
      <stop offset="0%" stop-color="#ff9e64"/>
      <stop offset="100%" stop-color="#e0af68"/>
    </linearGradient>
    <filter id="glow" x="-20%" y="-20%" width="140%" height="140%">
      <feGaussianBlur stdDeviation="3" result="blur"/>
      <feComposite in="SourceGraphic" in2="blur" operator="over"/>
    </filter>
    <filter id="cardShadow" x="-5%" y="-5%" width="110%" height="110%">
      <feDropShadow dx="0" dy="4" stdDeviation="6" flood-color="#000" flood-opacity="0.4"/>
    </filter>
    
  </defs>
  <rect width="495" height="195" rx="12" fill="url(#bgGrad)"/>
    <rect x="10" y="10" width="475" height="175" rx="10" fill="#1f2335" fill-opacity="0.6" stroke="#414868" stroke-width="1" filter="url(#cardShadow)"/>
  <text x="30" y="45" fill="url(#neonBlue)" font-size="20" font-weight="700" font-family="Segoe UI,Ubuntu,sans-serif" filter="url(#glow)">GitHub Analytics</text>
  <line x1="30" y1="55" x2="465" y2="55" stroke="#414868" stroke-width="1"/>
    <g transform="translate(20,75)">
      <g transform="translate(0,-12) scale(1.125)"><path d="M2 2.5A2.5 2.5 0 014.5 0h8.75a.75.75 0 01.75.75v12.5a.75.75 0 01-.75.75h-2.5a.75.75 0 110-1.5h1.75v-2h-8v2h1.75a.75.75 0 110 1.5h-2.5a.75.75 0 01-.75-.75V3.5a.75.75 0 01.75-.75zM4.5 1.5a1 1 0 00-1 1v10.5h8V2.5a1 1 0 00-1-1h-6z" fill="#7aa2f7"/></g>
      <text x="24" y="0" fill="#a9b1d6" font-size="13" font-family="Segoe UI,Ubuntu,sans-serif">Repositories</text>
      <text x="24" y="16" fill="url(#neonBlue)" font-size="16" font-weight="700" font-family="Segoe UI,Ubuntu,sans-serif" filter="url(#glow)">27</text>
    </g>
    <g transform="translate(255,75)">
      <g transform="translate(0,-12) scale(1.125)"><path d="M8 .25a.75.75 0 01.673.418l1.882 3.815 4.21.612a.75.75 0 01.416 1.279l-3.046 2.97.719 4.192a.75.75 0 01-1.088.791L8 12.347l-3.766 1.98a.75.75 0 01-1.088-.79l.72-4.194L.818 6.374a.75.75 0 01.416-1.28l4.21-.611L7.327.668A.75.75 0 018 .25z" fill="#e0af68"/></g>
      <text x="24" y="0" fill="#a9b1d6" font-size="13" font-family="Segoe UI,Ubuntu,sans-serif">Total Stars</text>
      <text x="24" y="16" fill="url(#neonOrange)" font-size="16" font-weight="700" font-family="Segoe UI,Ubuntu,sans-serif" filter="url(#glow)">3</text>
    </g>
    <g transform="translate(20,123)">
      <g transform="translate(0,-12) scale(1.125)"><path d="M5 3.25a1.75 1.75 0 11-3.5 0 1.75 1.75 0 013.5 0zm0 9.5a1.75 1.75 0 11-3.5 0 1.75 1.75 0 013.5 0zm7.5-5a1.75 1.75 0 11-3.5 0 1.75 1.75 0 013.5 0zM6.5 3.25a.75.75 0 01.75-.75h1a.75.75 0 010 1.5h-1a.75.75 0 01-.75-.75zM6.5 9.5a.75.75 0 01.75-.75h1a.75.75 0 010 1.5h-1a.75.75 0 01-.75-.75zm.75-3a.75.75 0 000 1.5h1a.75.75 0 000-1.5h-1z" fill="#bb9af7"/></g>
      <text x="24" y="0" fill="#a9b1d6" font-size="13" font-family="Segoe UI,Ubuntu,sans-serif">Total Forks</text>
      <text x="24" y="16" fill="url(#neonPurple)" font-size="16" font-weight="700" font-family="Segoe UI,Ubuntu,sans-serif" filter="url(#glow)">1</text>
    </g>
    <g transform="translate(255,123)">
      <g transform="translate(0,-12) scale(1.125)"><path d="M11.93 8.5a4.002 4.002 0 01-7.86 0H.75a.75.75 0 010-1.5h3.32a4.002 4.002 0 017.86 0h3.32a.75.75 0 010 1.5zm-1.43-.75a2.5 2.5 0 10-5 0 2.5 2.5 0 005 0z" fill="#9ece6a"/></g>
      <text x="24" y="0" fill="#a9b1d6" font-size="13" font-family="Segoe UI,Ubuntu,sans-serif">Contributions</text>
      <text x="24" y="16" fill="url(#neonGreen)" font-size="16" font-weight="700" font-family="Segoe UI,Ubuntu,sans-serif" filter="url(#glow)">832</text>
    </g>
    <g transform="translate(20,171)">
      <g transform="translate(0,-12) scale(1.125)"><path d="M4.243 4.757a3.757 3.757 0 117.514 0 3.757 3.757 0 01-7.514 0zm-2.25 7.5a2.25 2.25 0 012.25-2.25h9a2.25 2.25 0 012.25 2.25v.75a.75.75 0 01-.75.75h-12a.75.75 0 01-.75-.75v-.75z" fill="#f7768e"/></g>
      <text x="24" y="0" fill="#a9b1d6" font-size="13" font-family="Segoe UI,Ubuntu,sans-serif">Followers</text>
      <text x="24" y="16" fill="url(#neonBlue)" font-size="16" font-weight="700" font-family="Segoe UI,Ubuntu,sans-serif" filter="url(#glow)">5</text>
    </g>
    <g transform="translate(255,171)">
      <g transform="translate(0,-12) scale(1.125)"><path d="M4.243 4.757a3.757 3.757 0 117.514 0 3.757 3.757 0 01-7.514 0zm-2.25 7.5a2.25 2.25 0 012.25-2.25h9a2.25 2.25 0 012.25 2.25v.75a.75.75 0 01-.75.75h-12a.75.75 0 01-.75-.75v-.75z" fill="#7dcfff"/></g>
      <text x="24" y="0" fill="#a9b1d6" font-size="13" font-family="Segoe UI,Ubuntu,sans-serif">Following</text>
      <text x="24" y="16" fill="url(#neonPurple)" font-size="16" font-weight="700" font-family="Segoe UI,Ubuntu,sans-serif" filter="url(#glow)">8</text>
    </g>
</svg>