<svg xmlns="http://www.w3.org/2000/svg" width="300" height="416" viewBox="0 0 300 416">
  <rect fill="#1f2335" x="0.5" y="0.5" width="299" height="415" rx="6" stroke="#292e42" stroke-width="1"/>
  <text x="15" y="35" fill="#7aa2f7" font-size="18" font-weight="600" font-family="Segoe UI,Ubuntu,sans-serif">Top Languages</text>
  <text x="15" y="65" fill="#c0caf5" font-size="14" font-weight="600" font-family="Segoe UI,sans-serif">Java</text><text x="280" y="65" text-anchor="end" fill="#a9b1d6" font-size="14" font-family="Segoe UI,sans-serif">75.8%</text><rect x="15" y="75" width="250" height="8" rx="4" fill="#292e42"/><rect x="15" y="75" width="189.52233643124123" height="8" rx="4" fill="#b07219"/><text x="15" y="107" fill="#c0caf5" font-size="14" font-weight="600" font-family="Segoe UI,sans-serif">Kotlin</text><text x="280" y="107" text-anchor="end" fill="#a9b1d6" font-size="14" font-family="Segoe UI,sans-serif">9.8%</text><rect x="15" y="117" width="250" height="8" rx="4" fill="#292e42"/><rect x="15" y="117" width="24.58804876129781" height="8" rx="4" fill="#A97BFF"/><text x="15" y="149" fill="#c0caf5" font-size="14" font-weight="600" font-family="Segoe UI,sans-serif">Rust</text><text x="280" y="149" text-anchor="end" fill="#a9b1d6" font-size="14" font-family="Segoe UI,sans-serif">5.3%</text><rect x="15" y="159" width="250" height="8" rx="4" fill="#292e42"/><rect x="15" y="159" width="13.145332041062035" height="8" rx="4" fill="#dea584"/><text x="15" y="191" fill="#c0caf5" font-size="14" font-weight="600" font-family="Segoe UI,sans-serif">Shell</text><text x="280" y="191" text-anchor="end" fill="#a9b1d6" font-size="14" font-family="Segoe UI,sans-serif">3.2%</text><rect x="15" y="201" width="250" height="8" rx="4" fill="#292e42"/><rect x="15" y="201" width="7.979006161685102" height="8" rx="4" fill="#89e051"/><text x="15" y="233" fill="#c0caf5" font-size="14" font-weight="600" font-family="Segoe UI,sans-serif">Makefile</text><text x="280" y="233" text-anchor="end" fill="#a9b1d6" font-size="14" font-family="Segoe UI,sans-serif">1.3%</text><rect x="15" y="243" width="250" height="8" rx="4" fill="#292e42"/><rect x="15" y="243" width="3.1519329981527897" height="8" rx="4" fill="#427819"/><text x="15" y="275" fill="#c0caf5" font-size="14" font-weight="600" font-family="Segoe UI,sans-serif">Python</text><text x="280" y="275" text-anchor="end" fill="#a9b1d6" font-size="14" font-family="Segoe UI,sans-serif">1.2%</text><rect x="15" y="285" width="250" height="8" rx="4" fill="#292e42"/><rect x="15" y="285" width="2.9976967035741757" height="8" rx="4" fill="#3572A5"/><text x="15" y="317" fill="#c0caf5" font-size="14" font-weight="600" font-family="Segoe UI,sans-serif">HTML</text><text x="280" y="317" text-anchor="end" fill="#a9b1d6" font-size="14" font-family="Segoe UI,sans-serif">0.8%</text><rect x="15" y="327" width="250" height="8" rx="4" fill="#292e42"/><rect x="15" y="327" width="1.943240465225103" height="8" rx="4" fill="#e34c26"/><text x="15" y="359" fill="#c0caf5" font-size="14" font-weight="600" font-family="Segoe UI,sans-serif">C</text><text x="280" y="359" text-anchor="end" fill="#a9b1d6" font-size="14" font-family="Segoe UI,sans-serif">0.6%</text><rect x="15" y="369" width="250" height="8" rx="4" fill="#292e42"/><rect x="15" y="369" width="1.5942458302468863" height="8" rx="4" fill="#555555"/>
</svg>